<svg width="727" height="162" viewBox="0 0 727 162" fill="none" xmlns="http://www.w3.org/2000/svg">
<path d="M212.617 120L230.409 28.48H265.353C270.814 28.48 275.465 29.4187 279.305 31.296C283.571 33.344 286.857 36.3733 289.161 40.384C291.465 44.3947 292.617 49.088 292.617 54.464C292.617 61.9733 290.654 68.8427 286.729 75.072C282.889 81.216 277.854 85.7387 271.625 88.64C267.273 90.688 262.579 91.712 257.545 91.712H240.521L235.017 120H212.617ZM244.233 72.512H255.113C258.27 72.512 260.787 71.872 262.665 70.592C267.273 67.52 269.577 62.8267 269.577 56.512C269.577 53.7813 268.766 51.648 267.145 50.112C265.609 48.4907 263.347 47.68 260.361 47.68H249.097L244.233 72.512ZM291.191 120L303.991 54.08H325.239L323.062 65.216L322.039 69.312H322.167C324.3 64.704 327.5 60.8213 331.767 57.664C336.119 54.5067 340.556 52.928 345.079 52.928C345.761 52.928 347.041 53.0133 348.919 53.184L344.695 74.944C342.135 74.688 340.684 74.56 340.343 74.56C337.783 74.56 335.095 75.2 332.279 76.48C329.463 77.6747 326.561 80.1493 323.575 83.904C320.673 87.5733 318.711 92.1387 317.687 97.6L313.335 120H291.191ZM360.533 45.76L363.861 28.48H385.493L382.165 45.76H360.533ZM345.941 120L358.613 54.08H380.757L367.957 120H345.941ZM382.941 120L395.741 54.08H417.117L416.477 57.408L414.812 63.936H415.069C417.031 60.864 420.103 58.2187 424.285 56C428.466 53.696 432.733 52.544 437.085 52.544C443.314 52.544 448.306 54.0373 452.061 57.024C455.901 60.0107 457.821 64.7467 457.821 71.232C457.821 72.9387 457.522 75.3707 456.925 78.528L448.861 120H426.717L434.141 82.112C434.397 80.576 434.525 79.296 434.525 78.272C434.525 74.5173 432.562 72.64 428.637 72.64C424.37 72.64 420.53 74.432 417.117 78.016C413.789 81.6 411.655 85.8667 410.717 90.816L405.085 120H382.941ZM470.743 99.52C470.743 98.0693 470.956 96.3627 471.383 94.4L475.735 72.512H467.415L470.743 55.232H479.831L483.543 36.288H504.791L501.079 55.232H515.031L511.703 72.512H497.751L494.167 91.328C493.911 92.5227 493.783 93.6747 493.783 94.784C493.783 99.0507 497.025 101.184 503.511 101.184C504.705 101.184 505.857 101.141 506.967 101.056L503.255 120.256C499.671 120.512 497.708 120.64 497.367 120.64C489.516 120.64 483.116 118.933 478.167 115.52C473.217 112.021 470.743 106.688 470.743 99.52ZM516.995 120L534.659 28.48H590.595L587.011 47.68H553.347L549.635 66.88H577.411L573.827 86.08H545.923L539.267 120H516.995ZM584.12 92.736C584.12 81.3013 587.746 71.744 595 64.064C602.253 56.384 611.298 52.544 622.136 52.544C631.266 52.544 638.221 54.8907 643 59.584C647.864 64.2773 650.296 70.5493 650.296 78.4C650.296 81.984 649.485 86.2933 647.864 91.328H606.264V92.096C606.264 95.424 607.416 98.112 609.72 100.16C612.024 102.123 615.181 103.104 619.192 103.104C625.25 103.104 631.778 100.885 638.776 96.448L644.408 112.96C641.592 115.179 637.624 117.184 632.504 118.976C627.469 120.683 622.562 121.536 617.784 121.536C607.032 121.536 598.712 118.805 592.824 113.344C587.021 107.797 584.12 100.928 584.12 92.736ZM609.208 78.656H628.664C628.749 78.144 628.792 77.376 628.792 76.352C628.792 74.048 628.152 72.2133 626.872 70.848C625.677 69.4827 623.97 68.8 621.752 68.8C615.778 68.8 611.597 72.0853 609.208 78.656ZM656.62 92.736C656.62 81.3013 660.246 71.744 667.5 64.064C674.753 56.384 683.798 52.544 694.636 52.544C703.766 52.544 710.721 54.8907 715.5 59.584C720.364 64.2773 722.796 70.5493 722.796 78.4C722.796 81.984 721.985 86.2933 720.364 91.328H678.764V92.096C678.764 95.424 679.916 98.112 682.22 100.16C684.524 102.123 687.681 103.104 691.692 103.104C697.75 103.104 704.278 100.885 711.276 96.448L716.908 112.96C714.092 115.179 710.124 117.184 705.004 118.976C699.969 120.683 695.062 121.536 690.284 121.536C679.532 121.536 671.212 118.805 665.324 113.344C659.521 107.797 656.62 100.928 656.62 92.736ZM681.708 78.656H701.164C701.249 78.144 701.292 77.376 701.292 76.352C701.292 74.048 700.652 72.2133 699.372 70.848C698.177 69.4827 696.47 68.8 694.252 68.8C688.278 68.8 684.097 72.0853 681.708 78.656Z" fill="#151515"/>
<path d="M20.3177 2.19996C19.8177 4.49996 16.6177 22.3 6.81769 78.5C4.11769 93.9 1.31769 109.3 0.717691 112.8C0.117691 116.3 -0.182309 119.3 0.117691 119.6C0.717691 120.3 79.0177 120.1 79.7177 119.4C80.7177 118.4 89.7177 77.5 89.8177 73.8C89.8177 69.2 88.1177 65.2 85.6177 64.5C84.6177 64.1 83.8177 63.5 83.8177 63.1C83.8177 61.9 73.8177 59.3 64.5177 57.9C56.5177 56.7 54.5177 55.3 56.8177 52.6C57.4177 51.8 60.8177 50.8 64.6177 50.4C75.8177 49.3 85.7177 46.3 90.3177 42.8C95.7177 38.7 98.5177 34 103.918 20.5C107.518 11.4 108.418 9.89996 110.218 10.2C112.218 10.5 112.318 10.9 111.918 23.5C111.418 44 113.518 46.7 132.318 49.8C140.018 51 143.418 52 144.218 53.2C145.918 56 144.018 56.9 131.718 58.5C118.218 60.2 114.318 61.5 109.418 65.3C105.718 68.3 102.218 75.8 101.418 82.5L101.018 86H137.418C168.518 86 174.318 85.8 177.818 84.4C180.018 83.5 181.818 82.4 181.818 81.9C181.818 81.4 182.418 81 183.118 81C184.718 81 188.418 76.2 189.918 72.3C192.418 65.6 200.918 15 200.218 11.1C199.318 6.79996 195.018 2.39996 190.218 1.09996C187.518 0.399956 160.418 -3.8147e-05 103.618 -3.8147e-05H20.8177L20.3177 2.19996Z" fill="url(#paint0_linear_7190_6007)"/>
<defs>
<linearGradient id="paint0_linear_7190_6007" x1="100.129" y1="-4.57764e-05" x2="100.129" y2="120.036" gradientUnits="userSpaceOnUse">
<stop stop-color="#5D1AF4"/>
<stop offset="1" stop-color="#766BE9"/>
</linearGradient>
</defs>
</svg>
