<svg width="202" height="122" viewBox="0 0 202 122" fill="none" xmlns="http://www.w3.org/2000/svg">
<path d="M20.3177 2.19996C19.8177 4.49996 16.6177 22.3 6.81769 78.5C4.11769 93.9 1.31769 109.3 0.717691 112.8C0.117691 116.3 -0.182309 119.3 0.117691 119.6C0.717691 120.3 79.0177 120.1 79.7177 119.4C80.7177 118.4 89.7177 77.5 89.8177 73.8C89.8177 69.2 88.1177 65.2 85.6177 64.5C84.6177 64.1 83.8177 63.5 83.8177 63.1C83.8177 61.9 73.8177 59.3 64.5177 57.9C56.5177 56.7 54.5177 55.3 56.8177 52.6C57.4177 51.8 60.8177 50.8 64.6177 50.4C75.8177 49.3 85.7177 46.3 90.3177 42.8C95.7177 38.7 98.5177 34 103.918 20.5C107.518 11.4 108.418 9.89996 110.218 10.2C112.218 10.5 112.318 10.9 111.918 23.5C111.418 44 113.518 46.7 132.318 49.8C140.018 51 143.418 52 144.218 53.2C145.918 56 144.018 56.9 131.718 58.5C118.218 60.2 114.318 61.5 109.418 65.3C105.718 68.3 102.218 75.8 101.418 82.5L101.018 86H137.418C168.518 86 174.318 85.8 177.818 84.4C180.018 83.5 181.818 82.4 181.818 81.9C181.818 81.4 182.418 81 183.118 81C184.718 81 188.418 76.2 189.918 72.3C192.418 65.6 200.918 15 200.218 11.1C199.318 6.79996 195.018 2.39996 190.218 1.09996C187.518 0.399956 160.418 -3.8147e-05 103.618 -3.8147e-05H20.8177L20.3177 2.19996Z" fill="url(#paint0_linear_mark)"/>
<defs>
<linearGradient id="paint0_linear_mark" x1="100.129" y1="-4.57764e-05" x2="100.129" y2="120.036" gradientUnits="userSpaceOnUse">
<stop stop-color="#5D1AF4"/>
<stop offset="1" stop-color="#766BE9"/>
</linearGradient>
</defs>
</svg>
